<svg id="blog" xmlns="http://www.w3.org/2000/svg" width="16" height="16" viewBox="0 0 16 16">
  <path id="Path_494" data-name="Path 494" d="M14.594,0H1.406A1.408,1.408,0,0,0,0,1.406V3.75H16V1.406A1.408,1.408,0,0,0,14.594,0ZM3,2.344H2.375a.469.469,0,0,1,0-.937H3a.469.469,0,1,1,0,.937Zm2.5,0H4.875a.469.469,0,1,1,0-.937H5.5a.469.469,0,1,1,0,.937Zm2.5,0H7.375a.469.469,0,1,1,0-.937H8a.469.469,0,1,1,0,.937Z" fill="#fff"/>
  <path id="Path_495" data-name="Path 495" d="M72.674,337.574a.529.529,0,0,0-.529-.529h-.754V338.1l.754,0A.529.529,0,0,0,72.674,337.574Z" transform="translate(-69.161 -326.512)" fill="#fff"/>
  <path id="Path_496" data-name="Path 496" d="M72.394,291.4a.407.407,0,0,0-.407-.407h-.6v.814h.6A.407.407,0,0,0,72.394,291.4Z" transform="translate(-69.161 -281.904)" fill="#fff"/>
  <circle id="Ellipse_66" data-name="Ellipse 66" cx="1.25" cy="1.25" r="1.25" transform="translate(7.108 9.094)" fill="#fff"/>
  <path id="Path_497" data-name="Path 497" d="M0,159.906a1.408,1.408,0,0,0,1.406,1.406H14.594A1.408,1.408,0,0,0,16,159.906V150H0Zm12.733-6.125a1.866,1.866,0,0,1,1.049.32.313.313,0,0,1-.35.518,1.25,1.25,0,1,0-.7,2.287,1.009,1.009,0,0,0,1.009-.937h-.6a.313.313,0,0,1,0-.625h.935a.313.313,0,0,1,.313.313,1.7,1.7,0,0,1-1.661,1.875,1.875,1.875,0,1,1,0-3.75Zm-4.375,0a1.875,1.875,0,1,1-1.875,1.875A1.877,1.877,0,0,1,8.358,153.781Zm-3.594.313a.313.313,0,0,1,.625,0v2.813l.78,0h0a.313.313,0,0,1,0,.625l-.763,0a3.066,3.066,0,0,1-.386-.007.312.312,0,0,1-.26-.308Zm-3.157,0a.313.313,0,0,1,.313-.312h.908a1.031,1.031,0,0,1,.824,1.651,1.153,1.153,0,0,1-.666,2.1l-1.065,0h0a.312.312,0,0,1-.312-.312v-3.125Z" transform="translate(0 -145.313)" fill="#fff"/>
</svg>
