<svg id="Group_15" data-name="Group 15" xmlns="http://www.w3.org/2000/svg" width="20" height="17.47" viewBox="0 0 20 17.47">
  <g id="Group_14" data-name="Group 14" transform="translate(0 0)">
    <path id="Path_17" data-name="Path 17" d="M19.906,34.365l-2.9-2.046V29.331a.644.644,0,0,0-.552-.575H3.77a.644.644,0,0,0-.552.575V32.3L.207,34.365A.506.506,0,0,0,0,34.732V45.651a.667.667,0,0,0,.575.575H19.653c.253,0,.345-.3.345-.575V34.732C20,34.595,20.021,34.457,19.906,34.365Zm-2.9-.942,1.977,1.356L17.01,36.272ZM4.138,29.675H16.09v7.31L10.114,41.49,4.137,36.985v-7.31ZM3.218,33.4v2.9L1.241,34.778Zm-2.3,2.322,6.436,4.873L.919,44.938Zm1.1,9.585,6.114-4.115,1.632,1.241a.551.551,0,0,0,.322.115c.092,0,.138-.046.23-.115l1.7-1.31,6.183,4.184Zm17.056-.529-6.3-4.23,6.3-4.827Z" transform="translate(0 -28.756)" fill="#41ad49"/>
    <path id="Path_18" data-name="Path 18" d="M136.3,97.593h2.069a.46.46,0,0,0,0-.919H136.3a.46.46,0,1,0,0,.919Z" transform="translate(-129.861 -93.686)" fill="#41ad49"/>
    <path id="Path_19" data-name="Path 19" d="M136.3,144.614h7.356a.46.46,0,1,0,0-.919H136.3a.46.46,0,1,0,0,.919Z" transform="translate(-129.861 -138.638)" fill="#41ad49"/>
    <path id="Path_20" data-name="Path 20" d="M144.112,191.175a.46.46,0,0,0-.46-.46H136.3a.46.46,0,1,0,0,.919h7.356A.46.46,0,0,0,144.112,191.175Z" transform="translate(-129.861 -183.589)" fill="#41ad49"/>
  </g>
</svg>
