<svg xmlns="http://www.w3.org/2000/svg" width="35.493" height="35.493" viewBox="0 0 35.493 35.493">
  <g id="Group_40" data-name="Group 40" transform="translate(-48.169)">
    <path id="linkedin" d="M17.746,0A17.746,17.746,0,1,0,35.493,17.746,17.748,17.748,0,0,0,17.746,0ZM12.59,26.828H8.267v-13H12.59ZM10.429,12.049H10.4a2.253,2.253,0,1,1,.057-4.493,2.254,2.254,0,1,1-.029,4.493ZM28.174,26.828H23.852V19.871c0-1.748-.626-2.941-2.19-2.941a2.366,2.366,0,0,0-2.217,1.581,2.96,2.96,0,0,0-.142,1.055v7.261H14.981s.057-11.783,0-13H19.3v1.841a4.291,4.291,0,0,1,3.9-2.146c2.844,0,4.976,1.858,4.976,5.852Zm0,0" transform="translate(48.169 0)" fill="#17004c"/>
  </g>
</svg>
