<svg xmlns="http://www.w3.org/2000/svg" width="120" height="39.456" viewBox="0 0 120 39.456">
  <g id="logo" transform="translate(864.163 18.393)">
    <g id="Group_34" data-name="Group 34" transform="translate(-759.356 5.346)">
      <path id="Path_30" data-name="Path 30" d="M-368.224,135.5l.113.167-.222.152-.113-.167-.336.231-.212-.311.336-.229-.134-.194.222-.152.134.194.63-.432c.05-.035.076-.064.081-.082a.283.283,0,0,0-.062-.128.243.243,0,0,0-.02-.029.322.322,0,0,0-.025-.031l.235-.158.107.142a.476.476,0,0,1,.13.358.273.273,0,0,1-.128.165l-.735.5" transform="translate(379.495 -122.506)" fill="#00003c"/>
      <path id="Path_31" data-name="Path 31" d="M-413.272,112.8l.21-.109.082.156.313-.164.152.29-.315.165.1.183-.21.109-.1-.183-.593.313a.154.154,0,0,0-.078.062.261.261,0,0,0,.039.117.251.251,0,0,1,.016.027.147.147,0,0,0,.017.029l-.221.115-.078-.136a.431.431,0,0,1-.076-.326.253.253,0,0,1,.13-.129l.694-.362Z" transform="translate(414.038 -105.9)" fill="#00003c"/>
      <path id="Path_32" data-name="Path 32" d="M-383.389,84.419a.512.512,0,0,1-.136-.261.61.61,0,0,1,.023-.383.357.357,0,0,1,.274-.212.359.359,0,0,1,.224.014.712.712,0,0,1,.163.111l.068.056a.224.224,0,0,0,.117.051.458.458,0,0,0,.115-.012l.058.257a.824.824,0,0,1-.231.02.421.421,0,0,1-.171-.1l-.068-.058a.219.219,0,0,0-.07-.041.19.19,0,0,0-.126-.012.223.223,0,0,0-.122.072.185.185,0,0,0-.024.169.18.18,0,0,0,.109.14.318.318,0,0,0,.163.012l.062.276a.46.46,0,0,1-.428-.1m1.178-.445-.058-.259.251-.056.058.259Z" transform="translate(390.657 -83.551)" fill="#00003c"/>
      <path id="Path_33" data-name="Path 33" d="M-353.887,108.922l-.284.153-1.19-1.12.272-.146.307.3.442-.237-.062-.4.262-.142Zm-.405-.792-.307.165.416.414Z" transform="translate(369.036 -101.8)" fill="#00003c"/>
      <path id="Path_34" data-name="Path 34" d="M-404.306,93.112a.41.41,0,0,1,.085.216.483.483,0,0,1-.029.227,1.238,1.238,0,0,1-.089.183l-.659-.352a.25.25,0,0,0-.008.243.279.279,0,0,0,.113.1.224.224,0,0,0,.154.029.21.21,0,0,0,.08-.035l.243.128a.334.334,0,0,1-.175.117.5.5,0,0,1-.412-.049.567.567,0,0,1-.259-.282.5.5,0,0,1,.056-.436.545.545,0,0,1,.317-.294.492.492,0,0,1,.391.048.571.571,0,0,1,.191.156m-.465.014a.271.271,0,0,0-.138.107l.41.218a.224.224,0,0,0,.012-.177.232.232,0,0,0-.115-.124.214.214,0,0,0-.169-.024" transform="translate(407.339 -90.713)" fill="#00003c"/>
      <path id="Path_35" data-name="Path 35" d="M-374.778,143.965a.394.394,0,0,1,.2-.058.411.411,0,0,1,.194.043.991.991,0,0,1,.154.091l-.356.545a.219.219,0,0,0,.21.025.249.249,0,0,0,.1-.089.2.2,0,0,0,.037-.132.156.156,0,0,0-.027-.074l.132-.2a.277.277,0,0,1,.089.163.428.428,0,0,1-.076.352.482.482,0,0,1-.264.2.426.426,0,0,1-.372-.08.5.5,0,0,1-.235-.3.428.428,0,0,1,.074-.336.483.483,0,0,1,.148-.154m-.021.4a.221.221,0,0,0,.082.128l.22-.338a.2.2,0,0,0-.154-.025.2.2,0,0,0-.113.091.171.171,0,0,0-.035.144" transform="translate(384.108 -129.852)" fill="#00003c"/>
      <path id="Path_36" data-name="Path 36" d="M-414.021,118.318l.2-.035.066.408.313-.472.268-.043-.336.474.521.506-.264.045-.377-.379-.082.117.055.33-.2.035Z" transform="translate(414.036 -110.113)" fill="#00003c"/>
      <path id="Path_37" data-name="Path 37" d="M-411.986,121.962l.193.241-.846.679.336.424-.208.165-.525-.661Z" transform="translate(413.28 -113.018)" fill="#00003c"/>
      <path id="Path_38" data-name="Path 38" d="M-358.9,106.937l-.224.148a1.515,1.515,0,0,0-.167-.2.358.358,0,0,0-.2-.105.36.36,0,0,0-.165.017.24.24,0,0,0-.074.031l-.183-.276,1.439-.957.226.338-.918.614Z" transform="translate(372.522 -100.459)" fill="#00003c"/>
      <path id="Path_39" data-name="Path 39" d="M-399.82,94.748l-.157-.241a1.723,1.723,0,0,0,.218-.175.4.4,0,0,0,.113-.206.4.4,0,0,0-.015-.175.419.419,0,0,0-.033-.081l.295-.194,1.007,1.54-.36.237-.644-.982Z" transform="translate(403.263 -91.319)" fill="#00003c"/>
      <path id="Path_40" data-name="Path 40" d="M-355.858,112.3l.311-.179.212.375.309.735-.15.082-.469-.64Zm.729,1.3.3-.169.165.288-.3.171Z" transform="translate(369.417 -105.467)" fill="#00003c"/>
      <path id="Path_41" data-name="Path 41" d="M-367.737,89.886l.214-.233.278.255.457.529-.1.111-.566-.408Zm.883.8.2-.22.216.2-.2.222Z" transform="translate(378.53 -88.232)" fill="#00003c"/>
      <path id="Path_42" data-name="Path 42" d="M-390.483,145.351l-.1.443-.527-.117-.945-.332.05-.208.992.1Zm-1.664-.358-.093.422-.408-.09.093-.42Z" transform="translate(397.64 -130.617)" fill="#00003c"/>
      <path id="Path_43" data-name="Path 43" d="M-403.878,136.946l.115-.185-.222-.241-.117.187-.127-.138.117-.185-.309-.331.113-.183.309.334.092-.153-.309-.331.113-.181.309.331.117-.187.128.138-.117.185.224.241.117-.187.126.136-.116.187.307.327-.113.181-.307-.327-.095.152.307.327-.115.183-.307-.328-.113.184Zm.323-.519-.222-.241-.095.152.222.239Z" transform="translate(406.673 -123.432)" fill="#00003c"/>
      <path id="Path_44" data-name="Path 44" d="M-410.486,128.366l.148.237.28.012-.179.214.074.272-.26-.105-.234.152.02-.28-.22-.173.274-.068Z" transform="translate(411.609 -117.93)" fill="#00003c"/>
      <path id="Path_45" data-name="Path 45" d="M-363.424,138.221v.313l.307-.105.057.154-.307.1.19.265-.138.1-.187-.276-.185.276-.146-.1.2-.265-.311-.1.055-.154.3.109v-.317Z" transform="translate(375.624 -125.49)" fill="#00003c"/>
      <path id="Path_46" data-name="Path 46" d="M-396.756,86.632a.412.412,0,0,1,.013.084.324.324,0,0,1-.006.078.21.21,0,0,1-.048.1.187.187,0,0,1-.08.064.337.337,0,0,1-.1.029.286.286,0,0,1-.1-.006.361.361,0,0,1-.115-.041.373.373,0,0,1-.089-.08.357.357,0,0,1-.051-.111.345.345,0,0,1,0-.138.291.291,0,0,1,.047-.113.292.292,0,0,1,.084-.082.393.393,0,0,1,.109-.043.337.337,0,0,1,.119,0,.375.375,0,0,1,.089.027c.035.012.07.027.107.043l.1.047c.033.015.058.029.076.039a.358.358,0,0,1-.045-.146.63.63,0,0,1,.008-.128.278.278,0,0,1,.051-.109.282.282,0,0,1,.1-.085.374.374,0,0,1,.138-.045.54.54,0,0,1,.171,0,.47.47,0,0,1,.16.066.325.325,0,0,1,.107.1.357.357,0,0,1,.051.132.392.392,0,0,1,0,.148.406.406,0,0,1-.057.146.321.321,0,0,1-.105.105.4.4,0,0,1-.142.058.405.405,0,0,1-.173,0l-.078-.019a.654.654,0,0,1-.087-.031.716.716,0,0,1-.107-.043c-.041-.017-.087-.035-.138-.058m-.3.165a.118.118,0,0,0,.045,0,.111.111,0,0,0,.043-.008.151.151,0,0,0,.037-.031.111.111,0,0,0,.023-.051.123.123,0,0,0,0-.062.123.123,0,0,0-.025-.043.115.115,0,0,0-.039-.027.167.167,0,0,0-.039-.012.142.142,0,0,0-.087.01.093.093,0,0,0-.055.072.137.137,0,0,0,.018.1.116.116,0,0,0,.08.051m.747-.214a.311.311,0,0,0,.1,0,.19.19,0,0,0,.072-.027.14.14,0,0,0,.05-.047.143.143,0,0,0,.027-.062.149.149,0,0,0,0-.066.18.18,0,0,0-.031-.066.167.167,0,0,0-.054-.054.231.231,0,0,0-.086-.035.274.274,0,0,0-.082,0,.255.255,0,0,0-.072.023.141.141,0,0,0-.054.045.127.127,0,0,0-.031.068.135.135,0,0,0,0,.066.171.171,0,0,0,.029.068.191.191,0,0,0,.053.054.2.2,0,0,0,.08.035" transform="translate(401.243 -85.441)" fill="#00003c"/>
      <path id="Path_47" data-name="Path 47" d="M-368.8,142.714l-.082-.159-.253.132-.14-.27.253-.132-.29-.554.2-.105.984.142.161.309-.737.383.082.159Zm-.041-.521.506-.266-.69-.084Z" transform="translate(379.739 -128.103)" fill="#00003c"/>
      <path id="Path_48" data-name="Path 48" d="M-369.125,86.849a.27.27,0,0,0,.21.053.309.309,0,0,0,.126-.068l.107.07a.388.388,0,0,0-.01.154.329.329,0,0,0,.144.179l.234.159a.364.364,0,0,1,.087.076.324.324,0,0,1,.078.171.349.349,0,0,1-.023.165,1.18,1.18,0,0,1-.072.13l-.14-.095a.189.189,0,0,0,.018-.117.232.232,0,0,0-.117-.13l-.2-.138a.522.522,0,0,1-.138-.128.391.391,0,0,1-.049-.265.37.37,0,0,1-.208.072.439.439,0,0,1-.2-.08l-.22-.148a.233.233,0,0,0-.167-.052.266.266,0,0,0-.1.055l-.142-.095.041-.056a.375.375,0,0,1,.208-.148.3.3,0,0,1,.264.051Z" transform="translate(380.199 -85.892)" fill="#00003c"/>
      <path id="Path_49" data-name="Path 49" d="M-361.047,129.77l-.9.881-.111-.257.65-.607-.887.06-.111-.257,1.256-.056Z" transform="translate(374.44 -118.826)" fill="#00003c"/>
      <path id="Path_50" data-name="Path 50" d="M-396.65,141.955a.335.335,0,0,1-.113.187.405.405,0,0,1-.161.093.908.908,0,0,1-.167.037.7.7,0,0,1-.36-.045.373.373,0,0,1-.227-.327l-.049-.447,1.036-.107.048.445a.594.594,0,0,1-.007.165m-.2-.381-.675.07.022.2a.217.217,0,0,0,.173.2.559.559,0,0,0,.2.014.493.493,0,0,0,.237-.076.211.211,0,0,0,.066-.206Z" transform="translate(401.537 -127.888)" fill="#00003c"/>
      <path id="Path_51" data-name="Path 51" d="M-411.316,100.322a.339.339,0,0,1-.027-.129l-.058.115-.2-.1.574-1.1.2.107-.216.408a.292.292,0,0,1,.126-.043.32.32,0,0,1,.171.043.334.334,0,0,1,.175.233.479.479,0,0,1-.055.34.541.541,0,0,1-.262.264.336.336,0,0,1-.3-.006.278.278,0,0,1-.134-.132m.227-.539a.4.4,0,0,0-.109.136.379.379,0,0,0-.043.142.175.175,0,0,0,.1.183.174.174,0,0,0,.156.006.327.327,0,0,0,.144-.156.393.393,0,0,0,.047-.144.168.168,0,0,0-.1-.179.176.176,0,0,0-.2.013" transform="translate(412.179 -95.486)" fill="#00003c"/>
      <path id="Path_52" data-name="Path 52" d="M-360.515,124.962a.158.158,0,0,1,0,.037l-.434-.029a.321.321,0,0,0,.012-.07c0-.022,0-.037,0-.049a.352.352,0,0,0-.144-.354.637.637,0,0,0-.284-.066l-.663-.047.027-.426,1.507.1-.027.4-.28-.017a.9.9,0,0,1,.208.185.459.459,0,0,1,.08.315.051.051,0,0,1,0,.019" transform="translate(374.151 -114.548)" fill="#00003c"/>
      <path id="Path_53" data-name="Path 53" d="M-368.935,92.6a.354.354,0,0,1-.08.039.409.409,0,0,1-.08.017.245.245,0,0,1-.117-.015.251.251,0,0,1-.088-.064.3.3,0,0,1-.06-.095.463.463,0,0,1-.027-.1.372.372,0,0,1,.01-.128.334.334,0,0,1,.055-.115.3.3,0,0,1,.1-.084.3.3,0,0,1,.134-.044.32.32,0,0,1,.132.013.3.3,0,0,1,.105.062.286.286,0,0,1,.076.1.346.346,0,0,1,.037.119c0,.027,0,.058,0,.1s-.006.08-.01.119a.979.979,0,0,1-.018.115c-.007.037-.013.066-.017.086a.372.372,0,0,1,.134-.088.648.648,0,0,1,.13-.029.292.292,0,0,1,.125.017.321.321,0,0,1,.113.074.427.427,0,0,1,.088.126.505.505,0,0,1,.045.175.433.433,0,0,1-.017.181.394.394,0,0,1-.072.138.366.366,0,0,1-.119.093.418.418,0,0,1-.15.043.394.394,0,0,1-.163-.017.318.318,0,0,1-.138-.072.409.409,0,0,1-.1-.126.468.468,0,0,1-.049-.175c0-.027,0-.058,0-.084s0-.062,0-.1.006-.076.01-.122.01-.1.017-.156m-.255-.247a.367.367,0,0,0,.012.045.1.1,0,0,0,.025.041.123.123,0,0,0,.039.029.128.128,0,0,0,.057.006.168.168,0,0,0,.064-.021.119.119,0,0,0,.035-.039.128.128,0,0,0,.017-.047.136.136,0,0,0,0-.041.181.181,0,0,0-.037-.087.1.1,0,0,0-.086-.033.144.144,0,0,0-.095.047.13.13,0,0,0-.031.1m.442.688a.236.236,0,0,0,.027.1.287.287,0,0,0,.051.066.172.172,0,0,0,.062.037.264.264,0,0,0,.07.008.308.308,0,0,0,.066-.023.193.193,0,0,0,.06-.047.18.18,0,0,0,.035-.074.246.246,0,0,0,.01-.1.267.267,0,0,0-.023-.082.192.192,0,0,0-.045-.068.141.141,0,0,0-.062-.041.158.158,0,0,0-.078-.008.177.177,0,0,0-.068.021.219.219,0,0,0-.055.045.277.277,0,0,0-.041.072.273.273,0,0,0-.008.092" transform="translate(379.798 -90.038)" fill="#00003c"/>
      <path id="Path_54" data-name="Path 54" d="M-390.146,140.113a.408.408,0,0,0,.27-.008.208.208,0,0,0,.134-.148.293.293,0,0,0,0-.087.212.212,0,0,0-.033-.092.293.293,0,0,0-.089-.088.482.482,0,0,0-.163-.066.526.526,0,0,0-.15-.017l.078-.323.047.008a.468.468,0,0,1,.047.008c.023.006.041.013.064.017a.55.55,0,0,0,.064.018.645.645,0,0,1,.224.1.556.556,0,0,1,.153.167.571.571,0,0,1,.076.21.662.662,0,0,1-.014.237.608.608,0,0,1-.076.175.509.509,0,0,1-.152.152.642.642,0,0,1-.241.091.913.913,0,0,1-.34-.025l-.958-.235a.89.89,0,0,1-.282-.117.66.66,0,0,1-.183-.177.521.521,0,0,1-.085-.227.648.648,0,0,1,.014-.257.584.584,0,0,1,.119-.245.578.578,0,0,1,.194-.146.674.674,0,0,1,.233-.058.841.841,0,0,1,.239.021.753.753,0,0,1,.249.107.683.683,0,0,1,.184.167.567.567,0,0,1,.095.216.561.561,0,0,1-.008.247.334.334,0,0,1-.068.138.8.8,0,0,1-.117.121Zm-.877-.774a.46.46,0,0,0-.138-.012.364.364,0,0,0-.119.031.327.327,0,0,0-.1.068.234.234,0,0,0-.051.1.193.193,0,0,0,0,.109.326.326,0,0,0,.053.1.356.356,0,0,0,.093.081.494.494,0,0,0,.127.053.426.426,0,0,0,.136.01.368.368,0,0,0,.121-.027.268.268,0,0,0,.091-.064.221.221,0,0,0,.053-.1.184.184,0,0,0,0-.111.285.285,0,0,0-.051-.1.337.337,0,0,0-.093-.084.443.443,0,0,0-.125-.052" transform="translate(396.957 -126.072)" fill="#00003c"/>
      <path id="Path_55" data-name="Path 55" d="M-408.394,124.858a.1.1,0,0,0,.025.053.116.116,0,0,0,.1.047.158.158,0,0,0,.138-.121.8.8,0,0,0,.023-.187.262.262,0,0,1-.086.072.326.326,0,0,1-.115.027.307.307,0,0,1-.235-.082.326.326,0,0,1-.1-.239.415.415,0,0,1,.072-.265.323.323,0,0,1,.268-.126.311.311,0,0,1,.3.148.7.7,0,0,1,.092.332c0,.08,0,.146,0,.2a.614.614,0,0,1-.058.227.364.364,0,0,1-.113.13.306.306,0,0,1-.171.058.364.364,0,0,1-.239-.062.306.306,0,0,1-.109-.2Zm.214-.605a.134.134,0,0,0-.119-.047.125.125,0,0,0-.105.055.226.226,0,0,0-.033.138.2.2,0,0,0,.051.138.146.146,0,0,0,.115.043.137.137,0,0,0,.091-.037.177.177,0,0,0,.053-.154.2.2,0,0,0-.053-.136" transform="translate(409.913 -114.608)" fill="#00003c"/>
      <path id="Path_56" data-name="Path 56" d="M-409.355,131.855l.307-.06.389.431.19-.548.3-.06-.3.857.1.478-.272.054-.1-.484Z" transform="translate(410.457 -120.425)" fill="#00003c"/>
      <path id="Path_57" data-name="Path 57" d="M-380.93,144.482l.193.651h0l.134-.665.214-.01.3.957-.21.01-.185-.651h0l-.138.663-.2.01-.191-.659h0l-.13.673-.208.008.216-.98Z" transform="translate(388.98 -130.275)" fill="#00003c"/>
      <path id="Path_58" data-name="Path 58" d="M-351.523,118l.02-.179.191.02.163-1.478-.193-.023.025-.177.418.047-.206,1.835Z" transform="translate(366.092 -108.568)" fill="#00003c"/>
      <path id="Path_59" data-name="Path 59" d="M-360.55,92.683l-.124-.13.14-.134-1.027-1.079-.14.134-.122-.132.307-.29,1.27,1.34Z" transform="translate(373.993 -89.305)" fill="#00003c"/>
      <path id="Path_60" data-name="Path 60" d="M-354.889,126.086a.178.178,0,0,0,0,.107.243.243,0,0,0,.158.111.287.287,0,0,0,.13.021.081.081,0,0,0,.066-.054.078.078,0,0,0-.012-.076,1.592,1.592,0,0,0-.241-.169.569.569,0,0,1-.2-.183.233.233,0,0,1-.008-.2.322.322,0,0,1,.185-.2.45.45,0,0,1,.332,0,.578.578,0,0,1,.274.177.322.322,0,0,1,.046.295l-.255-.087a.155.155,0,0,0,0-.086.181.181,0,0,0-.126-.1.214.214,0,0,0-.128-.014.076.076,0,0,0-.055.049.067.067,0,0,0,.016.074,1.488,1.488,0,0,0,.241.163.516.516,0,0,1,.191.185.261.261,0,0,1,.012.208.315.315,0,0,1-.189.2.531.531,0,0,1-.365-.021.541.541,0,0,1-.307-.214.327.327,0,0,1-.024-.284Z" transform="translate(368.888 -115.671)" fill="#00003c"/>
      <path id="Path_61" data-name="Path 61" d="M-397.948,134.7a.26.26,0,0,0-.117.092.362.362,0,0,0,.01.27.416.416,0,0,0,.089.156.1.1,0,0,0,.113.029.106.106,0,0,0,.074-.078,2.3,2.3,0,0,0-.017-.408.818.818,0,0,1,.033-.373.326.326,0,0,1,.212-.175.446.446,0,0,1,.371.039.623.623,0,0,1,.274.369.79.79,0,0,1,.037.449.452.452,0,0,1-.288.3l-.117-.354a.223.223,0,0,0,.095-.074.261.261,0,0,0,.006-.224.3.3,0,0,0-.092-.152.1.1,0,0,0-.1-.021.092.092,0,0,0-.068.082,2.035,2.035,0,0,0,.025.4.728.728,0,0,1-.046.364.36.36,0,0,1-.218.192.443.443,0,0,1-.381-.041.761.761,0,0,1-.282-.42.731.731,0,0,1-.023-.517.462.462,0,0,1,.292-.268Z" transform="translate(402.051 -122.397)" fill="#00003c"/>
      <path id="Path_62" data-name="Path 62" d="M-397.074,91.122l-.2-.259.27-.609-.655.121-.2-.259,1.028-.179.448-.35.179.229-.455.36Z" transform="translate(401.643 -88.181)" fill="#00003c"/>
      <path id="Path_63" data-name="Path 63" d="M-354.941,120.5l.142.142-.068.284.29-.064.132.134-.441.086-.1.484-.142-.146.072-.313-.315.068-.138-.138.482-.1Z" transform="translate(369.15 -111.899)" fill="#00003c"/>
      <path id="Path_64" data-name="Path 64" d="M-400.9,90.158l.051-.441a.452.452,0,0,1,.048-.177.487.487,0,0,1,.1-.138.56.56,0,0,1,.142-.091.535.535,0,0,1,.173-.035l-.023.194a.245.245,0,0,0-.163.092.421.421,0,0,0-.062.175l.191.023-.051.445Z" transform="translate(403.973 -87.944)" fill="#00003c"/>
      <path id="Path_65" data-name="Path 65" d="M-412.761,106.919a.432.432,0,0,1-.206.1.525.525,0,0,1-.251-.012.924.924,0,0,1-.253-.107.837.837,0,0,1-.187-.156l.115-.241a.88.88,0,0,0,.185.146.85.85,0,0,0,.212.087.322.322,0,0,0,.2,0,.142.142,0,0,0,.1-.1.136.136,0,0,0-.021-.107.229.229,0,0,0-.134-.078l-.27-.072.074-.268.268.072a.224.224,0,0,0,.156,0,.123.123,0,0,0,.07-.08.144.144,0,0,0-.033-.134.33.33,0,0,0-.175-.1.83.83,0,0,0-.228-.033.811.811,0,0,0-.233.033l.021-.264a.959.959,0,0,1,.288-.035,1.545,1.545,0,0,1,.334.054.859.859,0,0,1,.422.224.516.516,0,0,1,.136.3,2.038,2.038,0,0,1-.024.4c-.01.074-.019.138-.025.187a1.089,1.089,0,0,0,0,.14l-.255,0a.754.754,0,0,1,0-.15c.008-.055.017-.122.031-.2a2.186,2.186,0,0,0,.037-.264.544.544,0,0,0-.019-.2.316.316,0,0,0-.109-.16.312.312,0,0,1,.039.261.311.311,0,0,1-.076.14.293.293,0,0,1-.146.08.325.325,0,0,1,.072.333.4.4,0,0,1-.115.191" transform="translate(413.758 -100.452)" fill="#00003c"/>
      <path id="Path_66" data-name="Path 66" d="M-386.354,89.244a.6.6,0,0,1,.165-.257.589.589,0,0,1,.27-.161.5.5,0,0,1,.282.012.64.64,0,0,1,.249.16.677.677,0,0,1,.159.255.528.528,0,0,1,.008.294.632.632,0,0,1-.179.29l-.28-.208a.465.465,0,0,0,.156-.239.21.21,0,0,0-.06-.2q-.164-.166-.383.049a.339.339,0,0,0-.113.2.226.226,0,0,0,.07.185l.088.089-.2.2-.08-.082a.22.22,0,0,0-.152-.074.2.2,0,0,0-.152.064.488.488,0,0,0-.1.136.778.778,0,0,0-.06.2l-.276-.16a.66.66,0,0,1,.058-.222.612.612,0,0,1,.132-.19.416.416,0,0,1,.2-.115.3.3,0,0,1,.2.014.391.391,0,0,1,0-.247" transform="translate(393.261 -87.587)" fill="#00003c"/>
      <path id="Path_67" data-name="Path 67" d="M-358.457,99.085a.471.471,0,0,1,.255.086.468.468,0,0,1,.179.21.517.517,0,0,1,.037.268.607.607,0,0,1-.1.268.682.682,0,0,1-.21.21.475.475,0,0,1-.253.074.471.471,0,0,1-.263-.087l.129-.3a.306.306,0,0,0,.218.058.226.226,0,0,0,.154-.1.217.217,0,0,0,.035-.175.246.246,0,0,0-.115-.153.271.271,0,0,0-.194-.049.234.234,0,0,0-.159.111l-.066.1-.231-.15.076-.113c.072-.109.074-.183.006-.229a.137.137,0,0,0-.111-.022.8.8,0,0,0-.156.059,1.061,1.061,0,0,1-.146.062.3.3,0,0,1-.138.012.345.345,0,0,1-.156-.064l.181-.276a.125.125,0,0,0,.1.018.765.765,0,0,0,.148-.055c.06-.025.111-.045.155-.06a.43.43,0,0,1,.138-.014.3.3,0,0,1,.146.054.272.272,0,0,1,.119.319.343.343,0,0,1,.22-.06" transform="translate(372.339 -95.227)" fill="#00003c"/>
      <path id="Path_68" data-name="Path 68" d="M-359.848,133.049a.459.459,0,0,1-.1.241.436.436,0,0,1-.216.159.506.506,0,0,1-.265.016.619.619,0,0,1-.251-.115.658.658,0,0,1-.19-.22.454.454,0,0,1-.053-.251.465.465,0,0,1,.1-.251l.286.15a.287.287,0,0,0-.074.206.216.216,0,0,0,.088.159.219.219,0,0,0,.167.048.256.256,0,0,0,.156-.1.266.266,0,0,0,.062-.187.229.229,0,0,0-.1-.158l-.1-.074.163-.212.105.082c.1.076.175.084.22.022a.142.142,0,0,0,.033-.107.832.832,0,0,0-.048-.154,1.467,1.467,0,0,1-.049-.15.292.292,0,0,1,0-.134.332.332,0,0,1,.072-.146l.255.2a.131.131,0,0,0-.025.1.719.719,0,0,0,.043.148c.021.06.037.111.047.154a.41.41,0,0,1,0,.134.3.3,0,0,1-.062.14.272.272,0,0,1-.321.093.327.327,0,0,1,.044.218" transform="translate(373.305 -120.617)" fill="#00003c"/>
      <path id="Path_69" data-name="Path 69" d="M-389.713,85.479c0-.018,0-.031.015-.039a.1.1,0,0,1,.055-.018.368.368,0,0,1,.085,0,.713.713,0,0,1,.169.031.2.2,0,0,1,.093.064.519.519,0,0,1,.064.148c.033-.008.072-.021.121-.033s.089-.024.122-.035a.5.5,0,0,0-.113-.218.373.373,0,0,0-.161-.1,1.436,1.436,0,0,0-.253-.064.493.493,0,0,1-.284-.136.416.416,0,0,1-.117-.272.361.361,0,0,1,.025-.2.119.119,0,0,1,.1-.074.114.114,0,0,1,.095.029.15.15,0,0,1,.043.1.38.38,0,0,1,0,.041l0,.048a.4.4,0,0,0,.07.2.377.377,0,0,0,.156.134.419.419,0,0,0,.216.035A.442.442,0,0,0-389,85.04a.4.4,0,0,0,.132-.16.429.429,0,0,0,.031-.212.452.452,0,0,0-.068-.212.373.373,0,0,0-.154-.138.372.372,0,0,0-.214-.037.341.341,0,0,0-.171.055.241.241,0,0,0-.1.128.282.282,0,0,0-.123-.109.336.336,0,0,0-.175-.025.317.317,0,0,0-.181.074.369.369,0,0,0-.115.177.571.571,0,0,0-.027.249.632.632,0,0,0,.1.3.487.487,0,0,0,.255.2.138.138,0,0,0-.1.043.129.129,0,0,0-.027.1.258.258,0,0,0,.021.082Zm.3-.766a.249.249,0,0,1,.031-.165.136.136,0,0,1,.111-.066.135.135,0,0,1,.124.045.255.255,0,0,1,.058.156.244.244,0,0,1-.029.163.142.142,0,0,1-.113.066.15.15,0,0,1-.123-.045.25.25,0,0,1-.058-.154" transform="translate(395.742 -84.109)" fill="#00003c"/>
      <path id="Path_70" data-name="Path 70" d="M-368.474,98.324a.65.65,0,0,1,.288-.039.857.857,0,0,1,.29.074,1.137,1.137,0,0,1,.262.163.977.977,0,0,1,.255.309.874.874,0,0,1,.089.3.626.626,0,0,1-.033.259.638.638,0,0,1-.1.187.6.6,0,0,1-.28.191.5.5,0,0,1-.34-.023l0,.007a.562.562,0,0,1,.129.387.649.649,0,0,1-.165.383.7.7,0,0,1-.286.216.771.771,0,0,1-.319.049,1,1,0,0,1-.325-.083,1.241,1.241,0,0,1-.294-.185,1.384,1.384,0,0,1-.241-.262.884.884,0,0,1-.142-.3.752.752,0,0,1-.008-.325.732.732,0,0,1,.163-.321.646.646,0,0,1,.354-.228.6.6,0,0,1,.406.06l.006,0a.461.461,0,0,1-.091-.325.574.574,0,0,1,.138-.309.572.572,0,0,1,.249-.179m-.741,1.451a.4.4,0,0,0-.012.165.419.419,0,0,0,.054.156.461.461,0,0,0,.111.134.484.484,0,0,0,.15.087.467.467,0,0,0,.159.023.4.4,0,0,0,.158-.045.457.457,0,0,0,.134-.111.4.4,0,0,0,.08-.146.413.413,0,0,0,.008-.158.375.375,0,0,0-.051-.15.5.5,0,0,0-.107-.13.5.5,0,0,0-.309-.123.356.356,0,0,0-.288.142.443.443,0,0,0-.086.159m.747-.677a.432.432,0,0,0,.152.237.412.412,0,0,0,.259.109.3.3,0,0,0,.241-.119.475.475,0,0,0,.058-.093.306.306,0,0,0,.031-.123.3.3,0,0,0-.031-.14.452.452,0,0,0-.123-.152.427.427,0,0,0-.126-.074.367.367,0,0,0-.138-.029.277.277,0,0,0-.134.027.363.363,0,0,0-.119.1.281.281,0,0,0-.07.262" transform="translate(380.046 -94.852)" fill="#00003c"/>
      <path id="Path_71" data-name="Path 71" d="M-404.741,124.2a.4.4,0,0,0-.208-.282.5.5,0,0,0-.243-.05l-.051-.2a.6.6,0,0,0,.191-.179.469.469,0,0,0,.025-.373l-.115-.438a.649.649,0,0,1-.019-.183.514.514,0,0,1,.1-.294.62.62,0,0,1,.222-.179,1.542,1.542,0,0,1,.247-.084l.068.259a.436.436,0,0,0-.163.128.389.389,0,0,0,0,.282l.1.377a.724.724,0,0,1,.027.3.626.626,0,0,1-.249.377.632.632,0,0,1,.352.132.643.643,0,0,1,.167.307l.109.411a.352.352,0,0,0,.156.239.463.463,0,0,0,.191.039l.07.259-.117.027a.71.71,0,0,1-.445-.031.473.473,0,0,1-.278-.342Z" transform="translate(407.302 -112.997)" fill="#00003c"/>
      <path id="Path_72" data-name="Path 72" d="M-387.747,112.443a.582.582,0,0,0,.257.253.819.819,0,0,0,.636-.105.947.947,0,0,0,.348-.253.254.254,0,0,0,.039-.28.256.256,0,0,0-.214-.154,5.308,5.308,0,0,0-.964.16,1.948,1.948,0,0,1-.9.031.794.794,0,0,1-.482-.455,1.079,1.079,0,0,1-.015-.9,1.492,1.492,0,0,1,.8-.762,1.941,1.941,0,0,1,1.058-.222,1.1,1.1,0,0,1,.8.6l-.811.385a.511.511,0,0,0-.206-.2.615.615,0,0,0-.535.054.724.724,0,0,0-.34.263.268.268,0,0,0-.021.247.232.232,0,0,0,.218.142,5.482,5.482,0,0,0,.951-.177,1.685,1.685,0,0,1,.892,0,.842.842,0,0,1,.517.465,1.042,1.042,0,0,1,.017.918,1.791,1.791,0,0,1-.922.8,1.781,1.781,0,0,1-1.227.208,1.109,1.109,0,0,1-.724-.62Z" transform="translate(394.944 -103.647)" fill="#00003c"/>
      <path id="Path_73" data-name="Path 73" d="M-372.7,130.017l-.319-.451,1.649-1.167-.554-.8.391-.274.871,1.248Z" transform="translate(382.584 -117.132)" fill="#00003c"/>
      <path id="Path_74" data-name="Path 74" d="M-404.763,106.335a.579.579,0,0,1,.086.292l.418-.747.443.249-1.241,2.205-.424-.241.132-.231a.7.7,0,0,1-.333.1.713.713,0,0,1-.336-.1.717.717,0,0,1-.358-.515,1.042,1.042,0,0,1,.144-.719,1.188,1.188,0,0,1,.577-.562.74.74,0,0,1,.665.053.6.6,0,0,1,.229.218m-.564,1.25a.716.716,0,0,0,.3-.3.627.627,0,0,0,.093-.525.373.373,0,0,0-.177-.2.346.346,0,0,0-.36-.014.762.762,0,0,0-.292.309.786.786,0,0,0-.119.42.357.357,0,0,0,.2.294.379.379,0,0,0,.358.023" transform="translate(408.185 -100.68)" fill="#00003c"/>
      <path id="Path_75" data-name="Path 75" d="M-369.756,98.284l.041.245.226-.124.066.113-.229.119.183.181-.095.1-.181-.194-.109.241-.126-.06.115-.233-.255-.039.025-.13.251.047-.041-.247Z" transform="translate(380.357 -94.853)" fill="#00003c"/>
      <path id="Path_76" data-name="Path 76" d="M-369.477,113l.171.474a.549.549,0,0,1,.039.206.453.453,0,0,1-.037.19.458.458,0,0,1-.1.163.622.622,0,0,1-.158.123l-.072-.208a.29.29,0,0,0,.117-.175.427.427,0,0,0-.025-.21l-.206.072-.169-.478Z" transform="translate(380.201 -106.146)" fill="#00003c"/>
      <path id="Path_77" data-name="Path 77" d="M-378.9,134.685l-.146.014-.039-.387a1.068,1.068,0,0,1-.461-.084.668.668,0,0,1-.313-.574l.411-.041a.65.65,0,0,0,.087.253.316.316,0,0,0,.243.109l-.062-.649-.128-.027a.779.779,0,0,1-.432-.2.563.563,0,0,1-.156-.354.721.721,0,0,1,.021-.262.642.642,0,0,1,.111-.214.574.574,0,0,1,.228-.171,1.079,1.079,0,0,1,.231-.062l-.029-.311.15-.014.027.315a.784.784,0,0,1,.4.082.6.6,0,0,1,.317.5l-.4.041a.589.589,0,0,0-.064-.2.238.238,0,0,0-.22-.1l.058.579a1.907,1.907,0,0,1,.507.175.547.547,0,0,1,.249.43.6.6,0,0,1-.226.583.9.9,0,0,1-.4.167Zm-.373-2.306a.256.256,0,0,0-.189.09.263.263,0,0,0-.047.191.252.252,0,0,0,.117.194.634.634,0,0,0,.171.06Zm.3,1.577a.37.37,0,0,0,.167-.072.276.276,0,0,0,.072-.251.254.254,0,0,0-.109-.2.649.649,0,0,0-.19-.074Z" transform="translate(387.858 -120.499)" fill="#00003c"/>
      <path id="Path_78" data-name="Path 78" d="M-405.241,98.435l.424-.012.023.638.471-.016.017.412-.474.014.023.64-.422.016-.025-.64-.442.014-.017-.41.447-.017Zm-.525,1.711-.428.014-.058-1.69.426-.014Z" transform="translate(408.076 -94.96)" fill="#00003c"/>
      <path id="Path_79" data-name="Path 79" d="M-379.7,102.186l.508-.36.723,1.021.235-1.7.669-.473-.295,1.738,2.1.7-.669.469-1.526-.539-.07.428.587.83-.511.36Z" transform="translate(387.711 -96.688)" fill="#00003c"/>
      <path id="Path_80" data-name="Path 80" d="M-388,135.916l.029-.3a.38.38,0,0,1,.029-.119.314.314,0,0,1,.07-.093.3.3,0,0,1,.095-.064.367.367,0,0,1,.115-.024l-.012.129a.182.182,0,0,0-.109.066.271.271,0,0,0-.041.117l.13.014-.029.3Z" transform="translate(394.076 -123.263)" fill="#00003c"/>
      <path id="Path_81" data-name="Path 81" d="M-372.159,140.976l.029-.3a.379.379,0,0,1,.029-.119.38.38,0,0,1,.068-.093.348.348,0,0,1,.095-.062.328.328,0,0,1,.117-.027l-.012.129a.18.18,0,0,0-.111.068.253.253,0,0,0-.039.115l.128.014-.029.3Z" transform="translate(381.922 -127.144)" fill="#00003c"/>
      <path id="Path_82" data-name="Path 82" d="M-380.793,93.578v.227l.22-.076.039.111-.22.074.138.19-.1.072-.132-.2-.136.2-.1-.072.138-.19-.222-.074.039-.111.22.078v-.228Z" transform="translate(388.837 -91.243)" fill="#00003c"/>
      <path id="Path_83" data-name="Path 83" d="M-360.351,119.438l.06.16.138-.115.06.07-.138.111.146.1-.052.078-.146-.105-.041.175-.095-.022.049-.173-.179.008v-.091h.177l-.062-.165Z" transform="translate(373.016 -111.081)" fill="#00003c"/>
      <path id="Path_84" data-name="Path 84" d="M-382.177,125.988a.407.407,0,0,1-.121.013l-.251,0c-.039,0-.072,0-.095,0a.286.286,0,0,0-.1.02.165.165,0,0,0-.1.105.312.312,0,0,0-.013.169l-.115.045a.774.774,0,0,1,0-.3.257.257,0,0,1,.173-.2.339.339,0,0,1,.113-.02,1.067,1.067,0,0,1,.121,0l.231,0a.4.4,0,0,0,.086-.006.647.647,0,0,0,.07-.019.165.165,0,0,0,.105-.113.574.574,0,0,0,.006-.156l.115-.044a1.314,1.314,0,0,1,.016.159.539.539,0,0,1-.016.163.333.333,0,0,1-.06.109.268.268,0,0,1-.1.066.192.192,0,0,1-.062.018" transform="translate(390.229 -115.711)" fill="#00003c"/>
      <path id="Path_85" data-name="Path 85" d="M-362.677,103.777a2.176,2.176,0,0,0,.35-.352,2.16,2.16,0,0,0,.27-.428,2.188,2.188,0,0,0,.161-.484l.2.154a2.046,2.046,0,0,1-.126.494,1.685,1.685,0,0,1-.251.435,1.554,1.554,0,0,1-.169.185,1.508,1.508,0,0,1-.2.173,1.6,1.6,0,0,1-.224.142,1.257,1.257,0,0,1-.235.1l-.2-.158a2,2,0,0,0,.428-.26" transform="translate(374.977 -98.097)" fill="#00003c"/>
      <path id="Path_86" data-name="Path 86" d="M-390.021,90.137l.288.1a.42.42,0,0,1,.111.062.28.28,0,0,1,.076.089.262.262,0,0,1,.039.111.327.327,0,0,1,0,.12l-.128-.043a.166.166,0,0,0-.037-.124.254.254,0,0,0-.107-.068l-.045.126-.295-.1Z" transform="translate(395.701 -88.603)" fill="#00003c"/>
      <path id="Path_87" data-name="Path 87" d="M-360.7,97.323l.3-.072a.426.426,0,0,1,.126-.012.3.3,0,0,1,.113.035.288.288,0,0,1,.095.07.308.308,0,0,1,.062.1l-.129.033a.171.171,0,0,0-.1-.083.243.243,0,0,0-.128,0l.031.13-.3.074Z" transform="translate(373.133 -94.051)" fill="#00003c"/>
      <path id="Path_88" data-name="Path 88" d="M-370.9,89.222l.282-.121a.357.357,0,0,1,.121-.033.322.322,0,0,1,.117.014.3.3,0,0,1,.105.054.3.3,0,0,1,.078.091l-.121.054a.165.165,0,0,0-.111-.064.254.254,0,0,0-.126.023l.052.124-.286.123Z" transform="translate(380.955 -87.782)" fill="#00003c"/>
      <path id="Path_89" data-name="Path 89" d="M-391.9,99.16l.105.288a.383.383,0,0,1,.025.124.355.355,0,0,1-.018.115.3.3,0,0,1-.062.1.315.315,0,0,1-.093.074l-.047-.126a.172.172,0,0,0,.07-.107.238.238,0,0,0-.019-.127l-.123.045-.107-.292Z" transform="translate(397.27 -95.525)" fill="#00003c"/>
      <path id="Path_90" data-name="Path 90" d="M-352.355,104.077l.117.284a.578.578,0,0,1,.029.122.323.323,0,0,1-.017.117.276.276,0,0,1-.056.105.333.333,0,0,1-.093.076l-.051-.122a.177.177,0,0,0,.068-.111.267.267,0,0,0-.023-.127l-.122.051-.119-.288Z" transform="translate(366.934 -99.297)" fill="#00003c"/>
      <path id="Path_91" data-name="Path 91" d="M-355.325,130.226l.222.212a.345.345,0,0,1,.078.1.342.342,0,0,1,.035.116.284.284,0,0,1-.008.117.325.325,0,0,1-.051.107l-.1-.091a.165.165,0,0,0,.014-.13.241.241,0,0,0-.07-.1l-.092.1-.227-.214Z" transform="translate(369.16 -119.357)" fill="#00003c"/>
      <path id="Path_92" data-name="Path 92" d="M-393.664,131.7l-.387.087a.541.541,0,0,1-.163.008.4.4,0,0,1-.144-.045.406.406,0,0,1-.122-.095.428.428,0,0,1-.076-.134l.167-.037a.228.228,0,0,0,.128.109.316.316,0,0,0,.165,0l-.037-.167.391-.086Z" transform="translate(399.103 -120.21)" fill="#00003c"/>
      <path id="Path_93" data-name="Path 93" d="M-399.933,130.794l-.27-.156.161-.276.272.156Zm.511-.07.272.154-.16.274-.272-.156Z" transform="translate(403.436 -119.461)" fill="#00003c"/>
      <path id="Path_94" data-name="Path 94" d="M-378.265,95.81l.14.412-.418.142-.138-.412Z" transform="translate(386.926 -92.955)" fill="#00003c"/>
      <path id="Path_95" data-name="Path 95" d="M-355.264,97.935l.074.214-.218.076-.074-.216Z" transform="translate(369.129 -94.585)" fill="#00003c"/>
      <path id="Path_96" data-name="Path 96" d="M-413.823,112.254l.088.259-.264.088-.089-.259Z" transform="translate(414.087 -105.57)" fill="#00003c"/>
      <path id="Path_97" data-name="Path 97" d="M-393.8,96.518l.088.259-.264.088-.089-.259Z" transform="translate(398.727 -93.498)" fill="#00003c"/>
      <path id="Path_98" data-name="Path 98" d="M-407.378,96.518l.088.259-.264.088-.089-.259Z" transform="translate(409.142 -93.498)" fill="#00003c"/>
      <rect id="Rectangle_42" data-name="Rectangle 42" width="0.278" height="0.274" transform="translate(7.628 12.747)" fill="#00003c"/>
      <rect id="Rectangle_43" data-name="Rectangle 43" width="0.278" height="0.274" transform="translate(7.807 13.718)" fill="#00003c"/>
      <path id="Path_99" data-name="Path 99" d="M-393.948,102.385l.031.739L-397,104.37l-.031-.71.634-.235-.051-1.153-.652-.183-.029-.684Zm-1.95.041.035.8,1.215-.451Z" transform="translate(401.076 -97.247)" fill="#00003c"/>
      <path id="Path_100" data-name="Path 100" d="M-389.325,128.872l-.537-.231-.237-2.127-.735,1.709-.478-.206,1.056-2.45.51.22.249,2.168.749-1.738.476.206Z" transform="translate(396.615 -115.784)" fill="#00003c"/>
      <path id="Path_101" data-name="Path 101" d="M-398.932,115.086v.235l.228-.078.043.113-.228.076.14.2-.1.074-.138-.206-.14.206-.105-.074.142-.2-.231-.076.041-.115.227.082v-.237Z" transform="translate(402.761 -107.743)" fill="#00003c"/>
      <path id="Path_102" data-name="Path 102" d="M-374.539,120.011a.829.829,0,0,0,.17-.313.472.472,0,0,0-.189-.492.515.515,0,0,0-.367-.117.512.512,0,0,0-.373.212.46.46,0,0,0-.082.54,1.928,1.928,0,0,0,.41.434l-.319.383a1.4,1.4,0,0,0-.465-.311.408.408,0,0,0-.443.171.469.469,0,0,0-.119.33.438.438,0,0,0,.175.311.426.426,0,0,0,.379.109.679.679,0,0,0,.352-.251l.5.414a1.824,1.824,0,0,1-.387.329,1.146,1.146,0,0,1-.451.123.913.913,0,0,1-.373-.062,1.351,1.351,0,0,1-.4-.243,1.23,1.23,0,0,1-.463-.725.875.875,0,0,1,.21-.739.777.777,0,0,1,.478-.286.614.614,0,0,1,.3.014.52.52,0,0,1-.1-.3.874.874,0,0,1,.224-.688,1.145,1.145,0,0,1,.745-.41,1.2,1.2,0,0,1,.927.323,1.123,1.123,0,0,1,.488,1.046,1.411,1.411,0,0,1-.307.632Z" transform="translate(385.632 -110.312)" fill="#00003c"/>
      <path id="Path_103" data-name="Path 103" d="M-376.585,91.177a.225.225,0,0,0,.093.089.252.252,0,0,0,.247-.006.327.327,0,0,0,.165-.364,1.5,1.5,0,0,0-.126-.389.506.506,0,0,1-.105.218.634.634,0,0,1-.206.158.655.655,0,0,1-.54.05.745.745,0,0,1-.42-.383.891.891,0,0,1-.093-.593.714.714,0,0,1,.416-.494.69.69,0,0,1,.737.025,1.486,1.486,0,0,1,.48.579,2.96,2.96,0,0,1,.179.389,1.276,1.276,0,0,1,.089.5.772.772,0,0,1-.105.358.671.671,0,0,1-.292.266.747.747,0,0,1-.527.093.624.624,0,0,1-.391-.29Zm-.126-1.4a.315.315,0,0,0-.278.012.283.283,0,0,0-.159.21.47.47,0,0,0,.06.3.439.439,0,0,0,.231.231.319.319,0,0,0,.264-.017.336.336,0,0,0,.148-.159.4.4,0,0,0-.037-.356.443.443,0,0,0-.228-.222" transform="translate(386.085 -88.013)" fill="#00003c"/>
      <path id="Path_104" data-name="Path 104" d="M-362.769,113.066a.656.656,0,0,1-.076.327.918.918,0,0,1-.245.29,1.237,1.237,0,0,1-.653.288l-.146-.373a.9.9,0,0,0,.268-.076,1.416,1.416,0,0,0,.245-.154.628.628,0,0,0,.206-.239.169.169,0,0,0-.014-.185.152.152,0,0,0-.128-.062.317.317,0,0,0-.194.084l-.381.3-.259-.329.4-.311a.279.279,0,0,0,.113-.159.184.184,0,0,0-.035-.148.184.184,0,0,0-.136-.07.28.28,0,0,0-.181.072l-.4.313-.258-.33.373-.292a.331.331,0,0,0,.136-.173.158.158,0,0,0-.029-.144.168.168,0,0,0-.173-.06.579.579,0,0,0-.263.134.775.775,0,0,0-.161,1.077,2.892,2.892,0,0,1,.194.447.873.873,0,0,1,.043.373.605.605,0,0,1-.161.338c-.041-.037-.095-.082-.158-.14s-.117-.105-.159-.14a.321.321,0,0,0,.091-.3,1.324,1.324,0,0,0-.19-.443.975.975,0,0,0-.078-.115.237.237,0,0,0-.078-.072.073.073,0,0,0-.072.014.243.243,0,0,0-.056.064l-.222-.284a.392.392,0,0,1,.1-.107.216.216,0,0,1,.163-.051.23.23,0,0,1,.15.1.97.97,0,0,1-.025-.6.967.967,0,0,1,.342-.48.983.983,0,0,1,.358-.181.632.632,0,0,1,.346,0,.54.54,0,0,1,.272.19.5.5,0,0,1,.1.224.459.459,0,0,1-.037.257.408.408,0,0,1,.443.163.471.471,0,0,1,.1.224.427.427,0,0,1-.047.245.463.463,0,0,1,.465.19.52.52,0,0,1,.113.3" transform="translate(376.895 -104.799)" fill="#00003c"/>
      <path id="Path_105" data-name="Path 105" d="M-408.487,117.231a.758.758,0,0,1-.443.072.832.832,0,0,1-.366-.128.607.607,0,0,1-.228-.266.715.715,0,0,1-.049-.373.691.691,0,0,1,.132-.35.625.625,0,0,1,.28-.21.826.826,0,0,1,.387-.041.738.738,0,0,1,.443.192.618.618,0,0,1,.189.408l.095.008a.179.179,0,0,0,.113-.016.523.523,0,0,0,.089-.089.829.829,0,0,1,.09-.095.312.312,0,0,1,.119-.054.6.6,0,0,1,.194,0l-.045.4a.174.174,0,0,0-.113.021.407.407,0,0,0-.093.09.594.594,0,0,1-.082.089.253.253,0,0,1-.105.052.5.5,0,0,1-.171.008l-.15-.018a.634.634,0,0,1-.284.307m-.692-.437a.5.5,0,0,0,.294.113.476.476,0,0,0,.307-.045.258.258,0,0,0,.123-.2.257.257,0,0,0-.076-.22.462.462,0,0,0-.29-.113.5.5,0,0,0-.311.043.262.262,0,0,0-.123.2.254.254,0,0,0,.076.22" transform="translate(410.629 -108.389)" fill="#00003c"/>
      <path id="Path_106" data-name="Path 106" d="M-383.363,96.143l.214-.251-.34-.294-.216.253-1.388-1.19-.418.494.648,1.979.381.327.753-.887.478.411.364-.43Zm-1.091.591-.463-1.18.848.727Z" transform="translate(392.164 -92.074)" fill="#00003c"/>
      <path id="Path_107" data-name="Path 107" d="M-392.007,93.711l-.132-.344.257-.1-.2-.517.478-.181.2.514.3-.113.132.344-.3.115.373.976c.029.076.055.12.082.13s.089,0,.187-.037l.045-.019a.344.344,0,0,0,.047-.023l.138.362-.226.095a.659.659,0,0,1-.515.06.386.386,0,0,1-.177-.224l-.432-1.138Z" transform="translate(397.25 -90.471)" fill="#00003c"/>
      <path id="Path_108" data-name="Path 108" d="M-362.608,94.613l.158-.023.017.118.239-.033.031.218-.237.035.018.138-.156.023-.021-.138-.449.064a.136.136,0,0,0-.064.023c-.008.01-.008.039,0,.085a.059.059,0,0,1,0,.02l.006.023-.167.023-.021-.1a.3.3,0,0,1,.025-.224.162.162,0,0,1,.111-.054l.523-.076Z" transform="translate(375.096 -92.019)" fill="#00003c"/>
      <path id="Path_109" data-name="Path 109" d="M-398.82,115.318a.706.706,0,0,0,.311-.449.7.7,0,0,0-.541-.828.7.7,0,0,0-.83.542.7.7,0,0,0,.262.7.518.518,0,0,0-.233.109.774.774,0,0,0-.263.449.767.767,0,0,0,.062.519.619.619,0,0,0,.453.3.612.612,0,0,0,.535-.1.751.751,0,0,0,.264-.451.755.755,0,0,0-.051-.5,1.033,1.033,0,0,1,.154,1.044.9.9,0,0,1-1.1.758.9.9,0,0,1-.7-1.136,1.682,1.682,0,0,1,.537-1.033l-.574-.119a2,2,0,0,0-.531,1.033,1.4,1.4,0,0,0,1.157,1.785,1.4,1.4,0,0,0,1.777-1.169,1.163,1.163,0,0,0-.69-1.462m-.486.866a.234.234,0,0,1-.2.041.232.232,0,0,1-.167-.118.346.346,0,0,1-.021-.235.352.352,0,0,1,.109-.21.226.226,0,0,1,.2-.041.224.224,0,0,1,.169.115.355.355,0,0,1,.017.237.357.357,0,0,1-.107.21m.222-1.064a.237.237,0,0,1-.2.044.233.233,0,0,1-.169-.117.343.343,0,0,1-.019-.237.341.341,0,0,1,.109-.21.228.228,0,0,1,.2-.041.222.222,0,0,1,.167.115.342.342,0,0,1,.021.237.354.354,0,0,1-.109.21" transform="translate(404.132 -106.93)" fill="#00003c"/>
      <path id="Path_110" data-name="Path 110" d="M-375.857,84.934a.215.215,0,0,1-.062-.092.232.232,0,0,1-.012-.107.68.68,0,0,1,.03-.107l.15-.455.194.066-.153.457a.189.189,0,0,0-.01.072.1.1,0,0,0,.076.08.112.112,0,0,0,.13-.029.2.2,0,0,0,.043-.076l.142-.43.19.064-.142.428a.259.259,0,0,0-.019.1.1.1,0,0,0,.076.085.116.116,0,0,0,.126-.017.2.2,0,0,0,.045-.082l.144-.435.19.064-.239.719-.181-.062.035-.105a.376.376,0,0,1-.092.06.241.241,0,0,1-.156-.006.229.229,0,0,1-.121-.08.2.2,0,0,1-.033-.107.236.236,0,0,1-.123.062.272.272,0,0,1-.14-.012.255.255,0,0,1-.086-.05" transform="translate(384.817 -84.027)" fill="#00003c"/>
      <path id="Path_111" data-name="Path 111" d="M-379.229,86.556a.235.235,0,0,0,.078-.017.058.058,0,0,0,.043-.056.061.061,0,0,0-.031-.064.22.22,0,0,0-.1-.02.131.131,0,0,0-.1.035.131.131,0,0,0-.029.068l-.191,0a.278.278,0,0,1,.058-.163.326.326,0,0,1,.272-.1.48.48,0,0,1,.222.051.192.192,0,0,1,.1.187l-.006.35v.088a.123.123,0,0,0,.012.054.068.068,0,0,0,.029.023v.029l-.216,0a.211.211,0,0,1-.012-.043c0-.014,0-.029-.006-.047a.431.431,0,0,1-.095.076.288.288,0,0,1-.146.035.257.257,0,0,1-.171-.062.21.21,0,0,1-.066-.167.222.222,0,0,1,.111-.2.507.507,0,0,1,.177-.045Zm.12.095a.136.136,0,0,1-.039.019.248.248,0,0,1-.051.015l-.047.006a.277.277,0,0,0-.09.027.1.1,0,0,0-.05.085.087.087,0,0,0,.029.072.1.1,0,0,0,.07.025.225.225,0,0,0,.119-.035.166.166,0,0,0,.06-.138Z" transform="translate(387.619 -85.614)" fill="#00003c"/>
      <path id="Path_112" data-name="Path 112" d="M-362.884,126.84l.159-.023.016.117.237-.033.031.22-.234.033.019.138-.159.023-.02-.138-.447.066c-.035,0-.058.013-.064.023s-.008.037,0,.082a.088.088,0,0,0,0,.02.071.071,0,0,0,0,.023l-.167.023-.018-.1a.286.286,0,0,1,.025-.224.171.171,0,0,1,.111-.054l.523-.074Z" transform="translate(375.308 -116.742)" fill="#00003c"/>
    </g>
    <path id="Path_113" data-name="Path 113" d="M-757.272-17.408h-31.437a1.056,1.056,0,0,0-1.056,1.056v1.331c-2.958-2.035-8.257-3.371-12.571-3.371-8.858,0-15.545,4.612-18.417,11.611v-9.551a1.056,1.056,0,0,0-1.056-1.056h-11.939a1.056,1.056,0,0,0-1.056,1.056v3.083a13.616,13.616,0,0,0-11.219-5.144c-10.365,0-18.141,8.471-18.141,19.727s7.776,19.729,18.141,19.729A13.7,13.7,0,0,0-834.8,15.956v3.083a1.056,1.056,0,0,0,1.056,1.056h11.939a1.056,1.056,0,0,0,1.056-1.056V9.451c2.872,7,9.559,11.611,18.417,11.611,4.449,0,9.945-1.42,12.841-3.564a1.473,1.473,0,0,0,.6-1.184V4.242a.61.61,0,0,0-.928-.533c-3,2.106-6.154,5.791-12.739,5.361-4.177-.271-8.1-3.5-8.1-7.735s3.923-7.464,8.1-7.735c6.584-.43,9.744,3.255,12.739,5.361a.61.61,0,0,0,.928-.533V-4.465h8.76V19.021a1.056,1.056,0,0,0,1.056,1.056H-766.9a1.056,1.056,0,0,0,1.056-1.056V-4.465h8.577a1.055,1.055,0,0,0,1.056-1.056V-16.352a1.056,1.056,0,0,0-1.056-1.056m-85.478,27.56c-5.053,0-8.257-3.93-8.257-8.818s3.2-8.818,8.257-8.818c4.921,0,8.255,3.764,8.255,8.818s-3.335,8.818-8.255,8.818" fill="#00003c"/>
  </g>
</svg>
