<svg id="share_2_" data-name="share (2)" xmlns="http://www.w3.org/2000/svg" width="15.336" height="16.73" viewBox="0 0 15.336 16.73">
  <path id="Path_7" data-name="Path 7" d="M319.2,18.265A2.265,2.265,0,1,1,316.933,16,2.265,2.265,0,0,1,319.2,18.265Zm0,0" transform="translate(-304.386 -15.477)" fill="#17004c"/>
  <path id="Path_8" data-name="Path 8" d="M301.456,5.577a2.788,2.788,0,1,1,2.788-2.788A2.791,2.791,0,0,1,301.456,5.577Zm0-4.531A1.743,1.743,0,1,0,303.2,2.788a1.745,1.745,0,0,0-1.743-1.743Zm0,0" transform="translate(-288.909)" fill="#17004c"/>
  <path id="Path_9" data-name="Path 9" d="M319.2,359.6a2.265,2.265,0,1,1-2.265-2.266A2.265,2.265,0,0,1,319.2,359.6Zm0,0" transform="translate(-304.386 -345.656)" fill="#17004c"/>
  <path id="Path_10" data-name="Path 10" d="M301.456,346.909a2.788,2.788,0,1,1,2.788-2.788A2.791,2.791,0,0,1,301.456,346.909Zm0-4.531a1.743,1.743,0,1,0,1.743,1.743A1.745,1.745,0,0,0,301.456,342.378Zm0,0" transform="translate(-288.909 -330.179)" fill="#17004c"/>
  <path id="Path_11" data-name="Path 11" d="M20.531,188.933a2.266,2.266,0,1,1-2.266-2.265A2.265,2.265,0,0,1,20.531,188.933Zm0,0" transform="translate(-15.477 -180.568)" fill="#17004c"/>
  <path id="Path_12" data-name="Path 12" d="M2.788,176.245a2.788,2.788,0,1,1,2.788-2.788,2.791,2.791,0,0,1-2.788,2.788Zm0-4.531a1.743,1.743,0,1,0,1.743,1.743,1.745,1.745,0,0,0-1.743-1.743Zm0,0" transform="translate(0 -165.091)" fill="#17004c"/>
  <path id="Path_13" data-name="Path 13" d="M115.046,95.3a.7.7,0,0,1-.346-1.3l6.468-3.688a.7.7,0,1,1,.69,1.212l-6.468,3.688A.692.692,0,0,1,115.046,95.3Zm0,0" transform="translate(-110.612 -87.267)" fill="#17004c"/>
  <path id="Path_14" data-name="Path 14" d="M121.536,271.3a.693.693,0,0,1-.344-.091l-6.468-3.688a.7.7,0,0,1,.69-1.212L121.882,270a.7.7,0,0,1-.346,1.3Zm0,0" transform="translate(-110.634 -257.52)" fill="#17004c"/>
</svg>
