<?xml version="1.0" standalone="no"?>
<!DOCTYPE svg PUBLIC "-//W3C//DTD SVG 20010904//EN"
 "http://www.w3.org/TR/2001/REC-SVG-20010904/DTD/svg10.dtd">
<svg version="1.0" xmlns="http://www.w3.org/2000/svg"
 width="72.000000pt" height="72.000000pt" viewBox="0 0 72.000000 72.000000"
 preserveAspectRatio="xMidYMid meet">

<g transform="translate(0.000000,72.000000) scale(0.100000,-0.100000)"
fill="#000000" stroke="none">
<path d="M340 680 c0 -11 4 -20 10 -20 5 0 6 8 3 17 -5 13 -2 15 11 10 10 -4
15 -3 11 3 -11 18 -35 11 -35 -10z"/>
<path d="M270 678 c0 -19 12 -34 34 -41 14 -6 17 -3 12 8 -3 8 -1 15 4 15 6 0
10 7 10 15 0 10 -10 15 -30 15 -17 0 -30 -5 -30 -12z m37 -13 c-6 -7 -15 -11
-19 -8 -14 8 -8 19 12 20 16 1 17 -1 7 -12z"/>
<path d="M421 679 c-1 -16 18 -29 40 -29 5 0 9 8 9 18 0 14 -2 15 -10 2 -7
-11 -10 -11 -10 -2 0 7 -4 11 -9 8 -5 -4 -12 0 -14 6 -4 8 -6 7 -6 -3z"/>
<path d="M230 672 c0 -5 -10 -12 -22 -16 -16 -4 -20 -8 -12 -16 14 -14 67 5
62 22 -5 15 -28 23 -28 10z"/>
<path d="M387 663 c-12 -11 -8 -23 8 -23 8 0 15 7 15 15 0 16 -12 20 -23 8z"/>
<path d="M520 641 c19 -16 37 -27 40 -24 7 6 -48 53 -63 53 -6 0 4 -13 23 -29z"/>
<path d="M167 633 c-10 -10 -8 -33 2 -33 6 0 9 9 8 20 -1 23 -1 22 -10 13z"/>
<path d="M321 616 c-17 -18 -31 -24 -45 -20 -17 4 -22 1 -22 -15 0 -12 3 -21
7 -21 4 0 12 -13 18 -30 9 -28 41 -43 41 -20 0 6 -4 10 -9 10 -11 0 -21 38
-14 56 3 8 16 17 29 20 13 3 22 11 21 16 -1 6 4 13 11 15 8 3 10 -1 6 -11 -3
-9 -1 -16 6 -16 17 0 8 34 -11 38 -8 1 -26 -9 -38 -22z"/>
<path d="M409 624 c-19 -23 1 -50 36 -47 17 1 25 -2 22 -10 -2 -7 -9 -12 -15
-12 -5 0 -14 -3 -18 -7 -4 -5 4 -8 19 -8 19 0 28 7 35 28 10 26 11 27 17 5 8
-25 35 -32 35 -10 0 18 -36 51 -48 43 -5 -3 -17 3 -27 14 -22 24 -38 25 -56 4z
m41 -20 c0 -9 -5 -14 -12 -12 -18 6 -21 28 -4 28 9 0 16 -7 16 -16z"/>
<path d="M478 633 c7 -3 16 -2 19 1 4 3 -2 6 -13 5 -11 0 -14 -3 -6 -6z"/>
<path d="M215 621 c-25 -5 -27 -8 -14 -16 9 -6 18 -16 20 -22 2 -7 12 1 21 17
9 17 14 29 10 29 -4 -1 -20 -4 -37 -8z"/>
<path d="M270 626 c0 -2 7 -7 16 -10 8 -3 12 -2 9 4 -6 10 -25 14 -25 6z"/>
<path d="M533 602 c15 -16 24 -31 20 -35 -9 -10 1 -9 31 3 20 7 27 6 34 -7 5
-9 12 -11 15 -6 8 12 -50 69 -60 60 -3 -4 2 -14 13 -22 19 -14 19 -14 -1 -15
-11 0 -29 11 -39 25 -10 14 -24 25 -29 25 -6 0 1 -13 16 -28z"/>
<path d="M113 584 c-8 -22 18 -37 36 -20 7 8 10 19 7 25 -10 16 -36 13 -43 -5z
m32 -4 c-3 -5 -11 -10 -16 -10 -6 0 -7 5 -4 10 3 6 11 10 16 10 6 0 7 -4 4
-10z"/>
<path d="M176 574 c-9 -22 -8 -26 5 -19 6 4 17 -2 25 -14 19 -26 30 -27 30 -2
0 11 -4 17 -8 15 -4 -3 -13 4 -20 16 -15 24 -24 25 -32 4z"/>
<path d="M370 584 c0 -10 31 -36 37 -31 3 3 -2 13 -10 22 -16 15 -27 19 -27 9z"/>
<path d="M325 570 c-7 -11 13 -76 29 -99 8 -11 13 -9 27 7 12 15 19 18 27 10
17 -17 24 -4 16 26 -4 16 -12 25 -19 22 -7 -2 -23 6 -36 20 -25 26 -34 29 -44
14z m51 -67 c-4 -4 -11 -1 -16 7 -16 25 -11 35 7 17 9 -9 13 -20 9 -24z"/>
<path d="M580 549 c0 -5 5 -7 10 -4 6 3 10 8 10 11 0 2 -4 4 -10 4 -5 0 -10
-5 -10 -11z"/>
<path d="M143 525 c-6 -14 -7 -25 -2 -25 5 0 9 -7 9 -15 0 -8 5 -15 10 -15 6
0 10 6 10 14 0 8 4 16 10 18 5 2 1 13 -8 25 l-17 23 -12 -25z"/>
<path d="M512 516 c-35 -37 -35 -57 3 -74 19 -9 26 -7 41 9 9 10 13 19 8 19
-5 0 -1 5 9 11 9 5 17 16 17 23 0 8 7 16 15 20 8 3 15 1 15 -4 0 -6 7 -10 15
-10 17 0 21 -16 5 -22 -5 -1 2 -8 15 -15 14 -6 25 -7 25 -2 0 5 -5 9 -11 9 -6
0 -9 6 -6 14 8 20 -19 40 -57 42 -17 1 -38 4 -46 8 -9 4 -27 -7 -48 -28z m58
-7 c0 -5 -7 -9 -15 -9 -15 0 -20 12 -9 23 8 8 24 -1 24 -14z m-27 -26 c9 -9
-13 -34 -24 -27 -14 8 -11 34 4 34 8 0 17 -3 20 -7z"/>
<path d="M61 522 c-13 -25 -7 -42 15 -42 15 0 17 14 5 45 -8 19 -8 19 -20 -3z
m19 -22 c0 -5 -5 -10 -11 -10 -5 0 -7 5 -4 10 3 6 8 10 11 10 2 0 4 -4 4 -10z"/>
<path d="M100 505 c0 -19 5 -35 10 -35 6 0 10 16 10 35 0 19 -4 35 -10 35 -5
0 -10 -16 -10 -35z"/>
<path d="M250 531 c0 -5 5 -13 10 -16 6 -3 10 -2 10 4 0 5 -4 13 -10 16 -5 3
-10 2 -10 -4z"/>
<path d="M490 529 c0 -5 5 -7 10 -4 6 3 10 8 10 11 0 2 -4 4 -10 4 -5 0 -10
-5 -10 -11z"/>
<path d="M450 501 c-5 -11 -10 -31 -10 -45 0 -31 -16 -34 -25 -6 -7 22 -20 26
-30 9 -4 -6 2 -20 12 -32 11 -12 27 -34 36 -49 10 -16 24 -28 32 -28 19 0 19
5 -1 35 -15 23 -15 25 1 25 9 0 25 -4 35 -10 18 -10 50 -4 50 9 0 4 -20 13
-45 20 -47 14 -48 18 -29 79 6 19 -14 14 -26 -7z"/>
<path d="M200 496 c0 -8 7 -16 15 -20 20 -7 19 -46 -1 -61 -9 -6 -15 -17 -13
-23 6 -16 133 40 137 60 2 13 -13 22 -63 37 -80 25 -75 24 -75 7z m94 -47 c-8
-14 -44 -10 -44 5 0 9 8 12 25 8 14 -2 22 -8 19 -13z"/>
<path d="M586 463 c-16 -20 -23 -34 -16 -31 16 5 56 56 49 62 -3 3 -18 -11
-33 -31z"/>
<path d="M50 460 c13 -8 12 -11 -4 -23 -11 -8 -16 -19 -12 -25 9 -15 36 -3 37
17 0 12 2 12 9 -4 8 -18 9 -17 9 6 1 25 -14 39 -42 39 -7 0 -6 -4 3 -10z"/>
<path d="M617 447 l-28 -22 22 -13 c19 -12 21 -12 16 2 -4 10 1 20 13 26 20
10 27 30 13 30 -5 0 -21 -10 -36 -23z"/>
<path d="M116 444 c-30 -30 -16 -68 29 -76 14 -2 25 8 43 40 25 44 24 64 -2
43 -10 -8 -16 -9 -21 -1 -9 15 -31 12 -49 -6z m50 -15 c10 -17 -23 -46 -38
-31 -8 8 -8 15 2 27 15 18 26 19 36 4z"/>
<path d="M677 436 c-5 -11 -13 -16 -23 -12 -10 4 -14 1 -11 -6 2 -7 15 -12 28
-10 17 1 20 -1 10 -7 -10 -6 -10 -10 -1 -16 19 -11 24 2 14 37 -8 28 -11 30
-17 14z"/>
<path d="M323 415 c-36 -15 -49 -45 -33 -76 11 -19 17 -21 61 -15 30 4 49 3
49 -3 0 -15 -22 -25 -54 -26 -38 0 -45 -22 -11 -31 34 -8 91 17 100 45 3 11 1
30 -5 42 -11 19 -17 21 -62 15 -39 -5 -49 -4 -46 6 3 7 19 13 36 14 42 1 52
12 28 30 -24 17 -23 17 -63 -1z"/>
<path d="M545 380 c-14 -28 -14 -32 0 -46 21 -22 19 -41 -3 -21 -34 31 -92 16
-92 -24 0 -9 -9 -19 -20 -22 -26 -7 -26 -48 0 -72 13 -12 27 -15 45 -11 34 9
26 32 -9 28 -22 -2 -27 1 -24 15 2 11 12 18 25 18 26 0 27 3 17 29 -4 11 -2
21 7 27 16 10 34 -5 34 -28 0 -9 6 -18 13 -20 6 -3 12 2 12 10 0 19 77 81 84
68 4 -5 -2 -14 -11 -20 -10 -5 -15 -13 -11 -17 11 -10 38 16 38 37 0 11 4 19
10 19 6 0 5 10 -2 25 -6 14 -15 25 -20 25 -11 0 -10 -17 2 -25 6 -3 10 -10 10
-16 0 -18 -16 -8 -33 21 -23 39 -52 39 -72 0z m45 0 c0 -5 -5 -10 -11 -10 -5
0 -7 -5 -4 -10 5 -8 11 -8 20 0 23 19 25 -6 3 -30 l-22 -23 -9 27 c-5 15 -6
33 -3 41 6 17 26 20 26 5z"/>
<path d="M36 375 c-11 -8 -17 -17 -14 -20 5 -5 68 23 68 31 0 10 -36 2 -54
-11z"/>
<path d="M492 370 c14 -22 24 -19 15 5 -4 8 -11 15 -17 15 -6 0 -6 -7 2 -20z"/>
<path d="M214 366 c-3 -9 -4 -23 -1 -31 4 -8 2 -17 -3 -20 -16 -10 -11 -42 6
-49 10 -4 25 1 35 10 22 19 23 16 9 -20 -17 -45 -80 -29 -80 19 0 12 5 26 12
33 14 14 4 27 -12 17 -21 -13 -30 -54 -18 -82 6 -16 10 -35 9 -43 -1 -10 1
-11 6 -4 4 6 23 11 42 11 54 0 93 67 59 101 -7 7 -12 24 -13 40 0 20 -6 28
-23 30 -13 2 -25 -3 -28 -12z m36 -21 c0 -8 -4 -15 -10 -15 -5 0 -10 7 -10 15
0 8 5 15 10 15 6 0 10 -7 10 -15z m-10 -50 c0 -8 -4 -15 -10 -15 -5 0 -10 7
-10 15 0 8 5 15 10 15 6 0 10 -7 10 -15z"/>
<path d="M180 360 c0 -5 5 -10 10 -10 6 0 10 5 10 10 0 6 -4 10 -10 10 -5 0
-10 -4 -10 -10z"/>
<path d="M74 345 c-17 -44 24 -58 66 -24 15 12 18 19 8 16 -9 -3 -19 1 -22 9
-7 19 -45 18 -52 -1z m46 -15 c0 -5 -9 -10 -20 -10 -11 0 -20 5 -20 10 0 6 9
10 20 10 11 0 20 -4 20 -10z"/>
<path d="M684 315 c-1 -24 2 -42 7 -39 11 6 12 84 2 84 -5 0 -9 -20 -9 -45z"/>
<path d="M41 332 c-1 -7 -5 -10 -11 -7 -5 3 -10 -4 -10 -15 0 -15 5 -20 15
-17 21 9 28 -10 8 -22 -17 -9 -17 -11 1 -28 14 -13 17 -14 14 -3 -3 8 1 23 10
33 8 9 10 17 4 17 -6 0 -15 12 -20 28 -6 15 -11 21 -11 14z"/>
<path d="M125 288 c-8 -26 -11 -78 -5 -78 4 0 12 -11 18 -25 6 -14 20 -25 29
-25 12 0 14 3 6 8 -16 10 -33 59 -35 99 -1 34 -6 42 -13 21z"/>
<path d="M645 291 c-3 -5 -1 -12 4 -15 5 -3 11 1 15 9 6 16 -9 21 -19 6z"/>
<path d="M82 268 c-13 -13 -4 -38 14 -38 15 0 19 35 6 44 -5 3 -14 0 -20 -6z"/>
<path d="M570 270 c0 -5 5 -10 10 -10 21 0 68 -43 63 -56 -3 -8 0 -14 7 -14 6
0 9 4 6 9 -4 5 -1 11 6 13 16 6 21 48 5 48 -7 0 -18 -5 -25 -12 -9 -9 -12 -8
-12 4 0 9 -10 18 -22 22 -32 8 -38 7 -38 -4z m94 -35 c-4 -8 -11 -12 -16 -9
-6 4 -5 10 3 15 19 12 19 11 13 -6z"/>
<path d="M283 209 c-27 -62 -18 -88 11 -33 l21 39 3 -47 c4 -62 24 -63 52 -2
22 51 24 64 11 64 -5 0 -16 -17 -24 -37 -14 -36 -15 -37 -21 -13 -3 14 -7 36
-8 49 -5 41 -22 33 -45 -20z"/>
<path d="M350 240 c-18 -12 -2 -12 25 0 13 6 15 9 5 9 -8 0 -22 -4 -30 -9z"/>
<path d="M500 232 c0 -4 6 -14 13 -21 10 -10 7 -16 -12 -32 -13 -11 -31 -24
-39 -28 -8 -5 -12 -13 -8 -20 5 -7 21 -1 52 19 24 17 44 33 44 36 0 3 -7 16
-16 29 -16 24 -34 33 -34 17z"/>
<path d="M550 232 c0 -16 23 -30 39 -25 13 5 14 3 4 -8 -21 -22 -15 -34 7 -14
28 26 25 35 -12 36 -31 1 -32 1 -8 9 l25 8 -27 1 c-16 1 -28 -3 -28 -7z"/>
<path d="M60 210 c0 -5 5 -10 10 -10 6 0 10 5 10 10 0 6 -4 10 -10 10 -5 0
-10 -4 -10 -10z"/>
<path d="M107 192 c-4 -6 -15 -8 -24 -5 -13 5 -13 2 3 -22 l18 -27 8 23 c10
26 6 49 -5 31z"/>
<path d="M240 190 c-13 -8 -12 -10 3 -10 9 0 17 5 17 10 0 12 -1 12 -20 0z"/>
<path d="M392 178 c-7 -7 -12 -20 -12 -30 0 -10 -4 -18 -10 -18 -5 0 -10 -5
-10 -11 0 -8 5 -8 15 1 11 9 18 10 28 1 8 -6 17 -8 20 -4 4 3 7 1 7 -6 0 -9
-8 -11 -25 -7 -29 7 -34 -9 -6 -23 14 -8 23 -6 36 9 15 17 16 22 4 36 -7 9
-22 20 -34 25 -17 8 -16 9 8 6 31 -5 36 8 9 22 -13 7 -23 6 -30 -1z"/>
<path d="M620 178 c0 -7 -5 -20 -10 -28 -9 -13 -11 -13 -20 0 -8 13 -10 13
-10 -2 0 -26 19 -32 41 -12 21 19 25 39 9 49 -5 3 -10 0 -10 -7z"/>
<path d="M216 158 c-13 -39 -14 -41 -15 -18 -1 16 -4 21 -11 14 -14 -14 -2
-44 17 -44 8 0 17 10 21 22 5 21 6 21 14 2 7 -16 7 -16 5 5 -2 27 -25 40 -31
19z"/>
<path d="M547 157 c-4 -10 -18 -22 -32 -27 -15 -6 -23 -14 -20 -20 13 -20 71
28 63 52 -3 8 -7 6 -11 -5z"/>
<path d="M126 142 c-7 -12 11 -35 22 -28 6 3 14 1 18 -5 4 -8 3 -9 -4 -5 -7 4
-12 3 -12 -3 0 -16 18 -22 23 -7 3 7 -1 23 -9 35 -16 22 -29 27 -38 13z"/>
<path d="M290 140 c0 -5 5 -10 10 -10 6 0 10 5 10 10 0 6 -4 10 -10 10 -5 0
-10 -4 -10 -10z"/>
<path d="M256 105 c-9 -24 0 -33 42 -44 28 -8 40 -8 50 3 8 8 11 19 8 25 -11
17 -26 13 -20 -4 4 -9 0 -15 -9 -15 -9 0 -17 10 -19 23 -4 27 -42 36 -52 12z
m44 -15 c0 -5 -7 -10 -15 -10 -8 0 -15 5 -15 10 0 6 7 10 15 10 8 0 15 -4 15
-10z"/>
<path d="M550 110 c0 -5 7 -10 15 -10 8 0 15 5 15 10 0 6 -7 10 -15 10 -8 0
-15 -4 -15 -10z"/>
<path d="M207 92 c-23 -5 -18 -36 6 -40 19 -4 35 25 21 37 -5 4 -17 6 -27 3z
m23 -16 c0 -11 -19 -15 -25 -6 -3 5 1 10 9 10 9 0 16 -2 16 -4z"/>
<path d="M493 70 c1 -23 10 -25 38 -9 24 13 16 29 -16 29 -18 0 -23 -5 -22
-20z"/>
<path d="M433 54 c-3 -9 0 -20 8 -24 15 -10 29 -4 29 11 0 6 -4 7 -10 4 -6 -3
-7 1 -4 9 3 9 1 16 -5 16 -7 0 -14 -7 -18 -16z"/>
<path d="M245 52 c-3 -4 14 -12 37 -19 51 -15 58 -16 58 -5 0 10 -87 32 -95
24z"/>
<path d="M365 43 c-3 -8 -5 -16 -5 -17 0 -1 14 -2 30 -2 31 0 35 3 22 22 -10
16 -40 13 -47 -3z"/>
</g>
</svg>
