<svg id="whatsapp_2_" data-name="whatsapp (2)" xmlns="http://www.w3.org/2000/svg" width="28.063" height="28.063" viewBox="0 0 28.063 28.063">
  <path id="Path_183" data-name="Path 183" d="M14.031,0A14.031,14.031,0,1,0,28.063,14.031,14.033,14.033,0,0,0,14.031,0Zm.3,22.2h0a8.4,8.4,0,0,1-4.013-1.022L5.86,22.346,7.052,18a8.4,8.4,0,1,1,7.277,4.2Zm0,0" fill="#17004c"/>
  <path id="Path_184" data-name="Path 184" d="M141.054,124.469a6.981,6.981,0,0,0-5.916,10.691l.166.264L134.6,138l2.642-.693.255.151a6.969,6.969,0,0,0,3.553.973h0a6.98,6.98,0,0,0,0-13.961Zm4.106,9.977a2.162,2.162,0,0,1-1.416,1,2.88,2.88,0,0,1-1.322-.083,12.121,12.121,0,0,1-1.2-.442,9.353,9.353,0,0,1-3.584-3.167,4.08,4.08,0,0,1-.857-2.17,2.352,2.352,0,0,1,.734-1.75.771.771,0,0,1,.56-.262c.14,0,.28,0,.4.007s.3-.049.472.36.595,1.452.647,1.557a.387.387,0,0,1,.018.368,5.98,5.98,0,0,1-.525.717c-.093.115-.215.218-.092.428a6.325,6.325,0,0,0,1.167,1.453,5.736,5.736,0,0,0,1.688,1.041c.21.1.332.087.455-.052s.525-.613.664-.823.28-.175.472-.1,1.224.577,1.434.682.35.158.4.245A1.75,1.75,0,0,1,145.16,134.446Zm0,0" transform="translate(-126.723 -117.647)" fill="#17004c"/>
</svg>
