<svg xmlns="http://www.w3.org/2000/svg" width="22" height="22" viewBox="0 0 22 22">
  <path id="Path_4" data-name="Path 4" d="M18.778,3.222A11,11,0,0,0,3.222,18.778,11,11,0,0,0,18.778,3.222ZM11.645,6.887A20.1,20.1,0,0,0,15,6.507a18.2,18.2,0,0,1,.518,3.848H11.645Zm0-1.29V1.4a4.8,4.8,0,0,1,2.44,2.568,11.354,11.354,0,0,1,.549,1.3,18.879,18.879,0,0,1-2.989.328ZM10.355,1.4V5.6a18.889,18.889,0,0,1-2.989-.328,11.351,11.351,0,0,1,.549-1.3A4.8,4.8,0,0,1,10.355,1.4Zm0,5.489v3.469H6.477A18.2,18.2,0,0,1,7,6.507a20.1,20.1,0,0,0,3.36.379ZM5.188,10.355H1.311A9.62,9.62,0,0,1,3.2,5.214a13.182,13.182,0,0,0,2.544.992,19.546,19.546,0,0,0-.556,4.15Zm0,1.289a19.546,19.546,0,0,0,.556,4.15,13.182,13.182,0,0,0-2.544.992,9.619,9.619,0,0,1-1.888-5.142Zm1.29,0h3.878v3.469A20.1,20.1,0,0,0,7,15.493,18.2,18.2,0,0,1,6.477,11.645ZM10.355,16.4v4.2a4.8,4.8,0,0,1-2.44-2.568,11.354,11.354,0,0,1-.549-1.3A18.879,18.879,0,0,1,10.355,16.4Zm1.289,4.2V16.4a18.889,18.889,0,0,1,2.989.328,11.351,11.351,0,0,1-.549,1.3,4.8,4.8,0,0,1-2.44,2.568Zm0-5.489V11.645h3.878A18.2,18.2,0,0,1,15,15.493a20.1,20.1,0,0,0-3.36-.379Zm5.168-3.469h3.877A9.62,9.62,0,0,1,18.8,16.786a13.182,13.182,0,0,0-2.544-.992A19.546,19.546,0,0,0,16.812,11.645Zm0-1.289a19.546,19.546,0,0,0-.555-4.15A13.183,13.183,0,0,0,18.8,5.214a9.619,9.619,0,0,1,1.888,5.142Zm1.126-6.149a12.212,12.212,0,0,1-2.045.765,12.726,12.726,0,0,0-.656-1.582,8.982,8.982,0,0,0-.958-1.535,9.678,9.678,0,0,1,3.587,2.279l.072.073ZM7.72,1.854a8.983,8.983,0,0,0-.958,1.535,12.723,12.723,0,0,0-.656,1.582,12.214,12.214,0,0,1-2.045-.765l.072-.073A9.678,9.678,0,0,1,7.72,1.854ZM4.062,17.793a12.212,12.212,0,0,1,2.045-.765,12.719,12.719,0,0,0,.656,1.582,8.982,8.982,0,0,0,.958,1.535,9.678,9.678,0,0,1-3.587-2.279ZM14.28,20.146a8.981,8.981,0,0,0,.958-1.535,12.723,12.723,0,0,0,.656-1.582,12.216,12.216,0,0,1,2.045.765l-.072.073A9.678,9.678,0,0,1,14.28,20.146Z" transform="translate(0)" fill="#17004c"/>
</svg>
